<?xml version="1.0" encoding="UTF-8"?>
<svg version="1.1" xmlns="http://www.w3.org/2000/svg" width="893" height="279">
<path d="M0 0 C1.03125 0.7425 2.0625 1.485 3.125 2.25 C16.37818748 14.92696194 25.5413017 33.05085092 26.30859375 51.453125 C26.78859501 74.59310423 21.2546886 94.40857949 5.73046875 112.2109375 C-9.08972562 127.34916179 -28.07077152 134.31603828 -49 135 C-50.30904297 135.09474609 -50.30904297 135.09474609 -51.64453125 135.19140625 C-61.46077548 135.67062447 -69.42398442 131.8692772 -77.22265625 126.171875 C-78.92346975 124.81651376 -78.92346975 124.81651376 -81 125 C-81.00142502 125.74866837 -81.00285004 126.49733673 -81.00431824 127.26869202 C-81.02219295 134.34529971 -81.06393777 141.421278 -81.13209057 148.49755192 C-81.16629326 152.13508818 -81.1914599 155.77220748 -81.19555664 159.40991211 C-81.19985433 162.92460478 -81.2284357 166.43835797 -81.27343178 169.95275688 C-81.29262629 171.93724985 -81.28706366 173.92193271 -81.28105164 175.9065094 C-81.39884471 183.22686109 -81.76103656 187.67684152 -87 193 C-90.5732468 194.19108227 -93.60836941 194.27879922 -97.375 194.375 C-98.68210937 194.42398438 -99.98921875 194.47296875 -101.3359375 194.5234375 C-105 194 -105 194 -107.8515625 191.9765625 C-111.95068314 186.29741718 -112.29781114 179.84846258 -112.26742554 173.02378845 C-112.27195665 172.26235128 -112.27648776 171.5009141 -112.28115618 170.71640307 C-112.29372876 168.18709285 -112.29218451 165.65799994 -112.29052734 163.12866211 C-112.29651684 161.30634792 -112.30332336 159.48403626 -112.31088257 157.66172791 C-112.32850136 152.72799102 -112.33323605 147.79432357 -112.33451414 142.86055827 C-112.335938 139.77626436 -112.34021192 136.69198799 -112.34550858 133.60769844 C-112.36399128 122.84286507 -112.3721809 112.07808114 -112.37060547 101.31323242 C-112.36940275 91.28498578 -112.39053518 81.25695389 -112.4220928 71.22876161 C-112.44824614 62.61029294 -112.45897324 53.9918945 -112.45769465 45.37338644 C-112.45718498 40.22952401 -112.46287172 35.08585279 -112.48405075 29.94202995 C-112.50341862 25.10659143 -112.50356754 20.27152694 -112.48901749 15.43607521 C-112.48692688 13.66357756 -112.49164528 11.89105657 -112.5037384 10.11859894 C-112.51920101 7.69503672 -112.50987728 5.27276285 -112.49447632 2.84922791 C-112.50476344 2.15135837 -112.51505057 1.45348884 -112.52564943 0.73447174 C-112.45045568 -4.63605625 -110.92093563 -7.65116448 -108 -12 C-104.61440591 -14.68180538 -100.75653894 -14.33343371 -96.5625 -14.375 C-95.26441406 -14.40335938 -93.96632813 -14.43171875 -92.62890625 -14.4609375 C-88.44256657 -13.92919575 -86.84985609 -13.07151157 -84 -10 C-83.07421875 -7.640625 -83.07421875 -7.640625 -82.6875 -5.25 C-82.54699219 -4.45078125 -82.40648437 -3.6515625 -82.26171875 -2.828125 C-82.17535156 -2.22484375 -82.08898437 -1.6215625 -82 -1 C-77.88116813 -4.33954463 -77.88116813 -4.33954463 -74.125 -8.0625 C-54.5798185 -25.88310666 -17.77316577 -14.26569193 0 0 Z M-72.69140625 23.78125 C-81.81918748 34.94505261 -82.18027761 47.9985602 -82.1875 61.75 C-82.19974609 62.96171875 -82.21199219 64.1734375 -82.22460938 65.421875 C-82.24448529 77.71844172 -81.53867851 87.84105159 -73.0234375 97.1640625 C-65.54621457 104.42991517 -58.76625164 106.10646625 -48.5 106.375 C-35.97478503 106.07288426 -25.91830133 101.87796417 -16.75 93.25 C-7.56857632 83.4206936 -2.96875143 71.28944976 -2.5625 57.8125 C-3.1734295 44.35408259 -8.02456508 33.05184813 -17.49609375 23.4765625 C-33.60012382 9.96023149 -57.53043628 7.81496291 -72.69140625 23.78125 Z " fill="#EFF1F0" transform="translate(495,50)"/>
<path d="M0 0 C13.86698127 11.7659235 24.0455229 26.69692143 26.44921875 45.078125 C27.09508598 53.38213219 27.07580292 60.48509641 23.32421875 68.02734375 C19.37609246 72.34560689 14.31477595 74.24830811 8.54174805 74.67431641 C6.64038896 74.73823742 4.7382126 74.78015692 2.8359375 74.8046875 C1.23742195 74.84621445 1.23742195 74.84621445 -0.39338684 74.88858032 C-4.11243624 74.97539444 -7.83105557 75.02844719 -11.55078125 75.078125 C-12.99071079 75.10182597 -14.43063174 75.12605332 -15.87054443 75.15075684 C-24.65888951 75.29778424 -33.44628527 75.38724959 -42.23580742 75.41913986 C-46.4425781 75.43449986 -50.64871026 75.46016324 -54.85522461 75.51025391 C-59.00140562 75.55953025 -63.14705121 75.5843261 -67.29351234 75.59144974 C-68.85441361 75.59813056 -70.41530421 75.6132694 -71.97603416 75.63734055 C-74.14246817 75.66898231 -76.30678414 75.66903829 -78.47338867 75.66162109 C-79.69926193 75.66970795 -80.92513519 75.6777948 -82.18815613 75.68612671 C-86.69341604 74.87152335 -88.31496299 73.27522573 -91.55078125 70.078125 C-93.83912088 66.12553837 -93.94647832 62.58907161 -93.55078125 58.078125 C-91.91529357 53.90763141 -89.97808747 50.96991462 -86.55078125 48.078125 C-82.90521116 46.86293497 -79.56886904 46.94632905 -75.7746582 46.96459961 C-74.98418091 46.96445358 -74.19370361 46.96430756 -73.37927246 46.9641571 C-70.76584125 46.96485391 -68.15248126 46.97263545 -65.5390625 46.98046875 C-63.72731058 46.98233376 -61.91555815 46.98375727 -60.10380554 46.98475647 C-55.33461109 46.98857515 -50.56544707 46.99839992 -45.79626465 47.00946045 C-40.92993583 47.01968851 -36.06360209 47.02425708 -31.19726562 47.02929688 C-21.64842412 47.04002274 -12.09960522 47.0570914 -2.55078125 47.078125 C-3.01968146 45.63142039 -3.49202314 44.18583091 -3.96582031 42.74072266 C-4.22848694 41.93559235 -4.49115356 41.13046204 -4.76177979 40.30093384 C-8.65473186 29.33354193 -17.38288688 22.24472267 -27.48828125 17.33984375 C-39.97792636 12.19423741 -56.5100876 11.76782366 -69.12890625 16.85546875 C-72.23475461 18.42342123 -75.17714335 20.12865711 -78.02734375 22.125 C-79.55078125 23.078125 -79.55078125 23.078125 -81.55078125 23.078125 C-81.55078125 23.738125 -81.55078125 24.398125 -81.55078125 25.078125 C-82.60265625 26.0990625 -82.60265625 26.0990625 -83.67578125 27.140625 C-92.2083058 35.45560643 -96.56264953 45.90118368 -97.0234375 57.73266602 C-97.17723543 70.92495797 -93.72436685 82.98773586 -84.80859375 93.04296875 C-75.00905155 102.33423594 -61.59938703 106.97308527 -48.23828125 107.453125 C-32.17069309 106.82439329 -20.81453149 101.92062516 -7.55078125 93.078125 C-2.23863045 93.078125 1.61329063 96.77986882 5.44921875 100.078125 C8.25509323 102.88399948 9.31877161 104.66376348 10.51171875 108.453125 C10.44504347 112.3202913 9.72455367 114.32180804 7.27734375 117.3203125 C-7.08168493 131.12707084 -31.50826157 136.49477642 -50.859375 136.29296875 C-72.46240861 135.03564933 -92.61430632 127.11352977 -107.55078125 111.078125 C-121.78183813 93.41275944 -127.61240222 73.72404963 -126.3359375 51.3046875 C-124.20605867 33.25142888 -116.29963161 17.86905077 -103.55078125 5.078125 C-102.79023437 4.294375 -102.0296875 3.510625 -101.24609375 2.703125 C-74.88364112 -22.88141919 -28.19500049 -22.08397647 0 0 Z " fill="#F1F5F4" transform="translate(175.55078125,48.921875)"/>
<path d="M0 0 C9.37911361 7.65321724 13.252367 17.55100462 14.6640625 29.33984375 C14.80984326 32.57196527 14.82109412 35.80033239 14.82519531 39.03540039 C14.83264267 40.45625191 14.83264267 40.45625191 14.84024048 41.9058075 C14.85477515 45.02054586 14.86164748 48.13523339 14.8671875 51.25 C14.87294356 53.42280579 14.87870123 55.59561158 14.88446045 57.76841736 C14.89494387 62.31509639 14.90080476 66.86175786 14.90429688 71.40844727 C14.90979375 77.23136688 14.9338585 83.05405411 14.96226883 88.87690067 C14.98089317 93.36104514 14.98610058 97.8451334 14.98763275 102.32931328 C14.99065731 104.47629512 14.99867918 106.62327603 15.01181793 108.7702198 C15.02888329 111.77155458 15.02699752 114.77231796 15.02050781 117.77368164 C15.0297226 118.65748505 15.03893738 119.54128845 15.0484314 120.45187378 C15.01428405 125.49638768 14.47142661 128.9717006 11.6640625 133.33984375 C7.78746488 136.53669074 4.59867624 136.72147088 -0.3359375 136.65234375 C-1.5321875 136.64847656 -2.7284375 136.64460937 -3.9609375 136.640625 C-7.20334657 136.3516603 -9.46039466 135.83576034 -12.3359375 134.33984375 C-13.53866569 131.93438737 -13.43665222 130.38987422 -13.3984375 127.71484375 C-13.38941406 126.89757812 -13.38039063 126.0803125 -13.37109375 125.23828125 C-13.35949219 124.61179688 -13.34789062 123.9853125 -13.3359375 123.33984375 C-14.1609375 123.943125 -14.9859375 124.54640625 -15.8359375 125.16796875 C-32.15328023 136.65578069 -50.14365844 138.54584081 -69.72265625 135.796875 C-82.19186286 133.51484629 -94.09700649 129.52756722 -102.17578125 119.17578125 C-109.9943519 106.80295902 -111.19653453 92.73792313 -108.65234375 78.51953125 C-105.36654478 66.98514979 -99.24449966 58.44627148 -89.1640625 51.9375 C-66.90938688 39.65262034 -38.83424766 42.06715085 -14.3359375 42.33984375 C-14.62917653 40.41440388 -14.93014463 38.49014005 -15.234375 36.56640625 C-15.40114746 35.49471191 -15.56791992 34.42301758 -15.73974609 33.31884766 C-16.41184056 29.96057708 -17.6244027 27.29613112 -19.3359375 24.33984375 C-19.3359375 23.67984375 -19.3359375 23.01984375 -19.3359375 22.33984375 C-19.9959375 22.33984375 -20.6559375 22.33984375 -21.3359375 22.33984375 C-21.3359375 21.67984375 -21.3359375 21.01984375 -21.3359375 20.33984375 C-22.0165625 20.21609375 -22.6971875 20.09234375 -23.3984375 19.96484375 C-26.3359375 19.33984375 -26.3359375 19.33984375 -29.27734375 18.32421875 C-34.50398186 16.82659511 -39.8118657 16.95668867 -45.2109375 16.96484375 C-46.31703369 16.96645508 -47.42312988 16.96806641 -48.56274414 16.96972656 C-62.20561519 17.17176981 -75.2786538 20.00986006 -87.421875 26.4453125 C-89.3359375 27.33984375 -89.3359375 27.33984375 -92.1484375 27.52734375 C-97.10503576 25.68076793 -99.55100473 21.71287868 -102.3359375 17.33984375 C-103.54237316 13.72053677 -103.65862309 11.1475337 -103.3359375 7.33984375 C-98.98942098 -0.62876988 -91.23101135 -3.75555723 -82.92236328 -6.43994141 C-56.31949695 -14.24915328 -23.75497649 -16.88271741 0 0 Z M-74.3828125 76.9453125 C-79.057371 81.98715773 -80.79384771 87.57765949 -80.5859375 94.38671875 C-80.04431986 98.61810657 -78.1588246 101.43981098 -75.3359375 104.52734375 C-64.83221819 110.87334083 -51.08933807 110.66611656 -39.2421875 108.87109375 C-30.39431031 106.5191264 -22.18147814 101.35449252 -16.3359375 94.33984375 C-13.97670362 89.05965363 -14.10007236 84.12749404 -14.2109375 78.46484375 C-14.21996094 77.58570312 -14.22898437 76.7065625 -14.23828125 75.80078125 C-14.26169173 73.64701665 -14.2975574 71.49339361 -14.3359375 69.33984375 C-45.66155839 67.29864173 -45.66155839 67.29864173 -74.3828125 76.9453125 Z " fill="#F0F3F2" transform="translate(638.3359375,47.66015625)"/>
<path d="M0 0 C1.10314545 0.00318237 2.20629089 0.00636475 3.34286499 0.00964355 C6.98253895 0.02221051 10.62209385 0.04308967 14.26171875 0.06567383 C15.50643951 0.07263086 16.75116028 0.0795879 18.03359985 0.08675575 C23.9378966 0.12026384 29.84214225 0.15794211 35.74636745 0.20212096 C42.54827471 0.2528827 49.35000496 0.28710871 56.15207005 0.3073017 C62.05647 0.32601354 67.96060033 0.36644295 73.86483765 0.41457558 C76.3718193 0.43192179 78.87885617 0.44261193 81.38589478 0.44652367 C84.8904987 0.45359695 88.39405056 0.48549482 91.8984375 0.5234375 C92.93342377 0.51997818 93.96841003 0.51651886 95.03475952 0.51295471 C100.97775334 0.60814998 104.40855245 1.14564714 108.94921875 5.08520508 C110.72620585 7.42759716 110.98253035 9.24843192 111.57421875 12.14770508 C110.15374435 21.09669377 102.19049219 28.09776743 96.23046875 34.55786133 C93.89514449 37.14511269 91.69818153 39.80887363 89.51171875 42.52270508 C85.649802 47.2980491 81.57247651 51.82188193 77.4140625 56.33911133 C75.02214578 59.00395674 72.75666991 61.73352333 70.51171875 64.52270508 C66.37109908 69.65267635 61.97654555 74.48985308 57.5 79.32348633 C51.19390527 86.15106515 45.20762788 93.26473545 39.16796875 100.32739258 C36.96632619 102.90093422 34.75726805 105.46785884 32.54296875 108.03051758 C31.71865356 108.98643799 31.71865356 108.98643799 30.87768555 109.96166992 C29.81826435 111.18995187 28.75728271 112.41689001 27.69458008 113.64233398 C25.04291954 116.67014679 25.04291954 116.67014679 22.94921875 120.08520508 C24.35410301 120.07521233 24.35410301 120.07521233 25.78736877 120.0650177 C34.62955331 120.0041064 43.47169507 119.95918442 52.31404209 119.92976856 C56.85959709 119.91413698 61.40498221 119.89294466 65.95043945 119.85888672 C70.34005838 119.82620362 74.72951428 119.80833321 79.11924553 119.80057335 C80.79092918 119.79504587 82.46260428 119.78425206 84.13421822 119.76801491 C86.48233189 119.74612122 88.8297786 119.74324307 91.17797852 119.74462891 C91.86346771 119.73384308 92.54895691 119.72305725 93.25521851 119.71194458 C98.24493011 119.7436463 101.59349474 120.81843349 105.94921875 123.08520508 C107.38671875 125.27270508 107.38671875 125.27270508 107.94921875 127.08520508 C108.60921875 127.08520508 109.26921875 127.08520508 109.94921875 127.08520508 C111.15608535 134.27747767 111.21533297 139.61049661 107.07421875 145.96020508 C100.09994302 150.70271258 89.19481568 149.23444877 80.95166016 149.23046875 C79.41267059 149.23550667 79.41267059 149.23550667 77.84259033 149.24064636 C74.49530791 149.25004558 71.14807599 149.2520931 67.80078125 149.25317383 C65.45575948 149.25639143 63.11073791 149.25975587 60.76571655 149.26325989 C55.87228937 149.26922156 50.97887978 149.27110258 46.08544922 149.27050781 C39.81769067 149.27040575 33.55004427 149.28411706 27.28231239 149.30128002 C22.44904053 149.31239242 17.61579599 149.31442734 12.78251266 149.31389809 C10.47086573 149.31507707 8.15921806 149.31949423 5.84758377 149.32723045 C2.62177836 149.33702544 -0.60378048 149.33415536 -3.82958984 149.328125 C-4.78034393 149.33374451 -5.73109802 149.33936401 -6.71066284 149.34515381 C-12.55954297 149.31736395 -17.56441419 149.08811188 -22.30078125 145.27270508 C-25.32428576 141.49332445 -26.26976774 138.64964977 -25.9375 133.84301758 C-25.28998787 128.6212985 -23.10801118 125.8696567 -19.55078125 122.14770508 C-19.00832764 121.54853271 -18.46587402 120.94936035 -17.90698242 120.33203125 C-16.30457645 118.56718896 -14.67967556 116.82556897 -13.05078125 115.08520508 C-11.48493135 113.35907133 -9.92202644 111.63025725 -8.36328125 109.89770508 C-7.65300781 109.11524414 -6.94273437 108.3327832 -6.2109375 107.52661133 C-1.78095439 102.51984922 2.40484213 97.29817701 6.5546875 92.05786133 C7.64473006 90.69930388 8.78985007 89.3851033 9.94921875 88.08520508 C10.60921875 88.08520508 11.26921875 88.08520508 11.94921875 88.08520508 C12.2740625 87.29823242 12.2740625 87.29823242 12.60546875 86.49536133 C14.47043087 83.1503566 16.9415995 80.39319204 19.44921875 77.52270508 C20.2522644 76.59397583 20.2522644 76.59397583 21.0715332 75.64648438 C25.16274396 70.93434582 29.36234377 66.33081009 33.58203125 61.73364258 C36.74930199 58.19006245 39.72111472 54.50356142 42.703125 50.80395508 C45.74842343 47.11781993 48.95949767 43.59662118 52.19921875 40.08129883 C53.99703854 38.20069833 53.99703854 38.20069833 54.94921875 36.08520508 C55.60921875 36.08520508 56.26921875 36.08520508 56.94921875 36.08520508 C57.41328125 35.15708008 57.41328125 35.15708008 57.88671875 34.21020508 C58.57421875 32.83520508 59.26171875 31.46020508 59.94921875 30.08520508 C58.98313187 30.08378006 58.01704498 30.08235504 57.02168274 30.08088684 C47.91371687 30.06421167 38.80619749 30.02142241 29.69846821 29.95311451 C25.01611752 29.91883488 20.33409344 29.89373304 15.65161133 29.88964844 C11.13201911 29.88536754 6.61316377 29.8569226 2.0938015 29.8117733 C0.37029501 29.79879154 -1.35329963 29.79449304 -3.07684898 29.79905128 C-5.49303962 29.80395276 -7.90707278 29.77788899 -10.32299805 29.74462891 C-11.39006989 29.75756737 -11.39006989 29.75756737 -12.47869873 29.77076721 C-16.3508687 29.68150647 -17.9270039 29.18793791 -20.9478302 26.68070984 C-24.41221788 22.40489243 -25.25257418 19.605147 -24.92578125 14.14770508 C-24.35414877 9.58145037 -23.07694872 6.6454021 -20.05078125 3.08520508 C-14.06259169 -0.9069213 -6.95347146 -0.044757 0 0 Z " fill="#F5F8F7" transform="translate(225.05078125,34.914794921875)"/>
<path d="M0 0 C1.21429687 -0.02578125 2.42859375 -0.0515625 3.6796875 -0.078125 C8.74494894 0.40428085 11.77863397 2.55451498 15.125 6.25 C16.16479492 8.08081055 16.16479492 8.08081055 17.10546875 10.13671875 C17.46576172 10.91208984 17.82605469 11.68746094 18.19726562 12.48632812 C18.56529297 13.29521484 18.93332031 14.10410156 19.3125 14.9375 C23.3900144 23.80854335 27.73096776 32.53281298 32.125 41.25 C32.48197968 41.95824921 32.83895935 42.66649841 33.20675659 43.39620972 C33.93398412 44.838873 34.66123346 46.28152529 35.38850403 47.72416687 C43.97236492 64.7560061 52.46579351 81.77623243 60.125 99.25 C65.33314358 89.63831123 70.34761719 80.01069886 74.75 70 C77.58014948 63.56896049 80.58295851 57.33695563 83.96533203 51.18041992 C87.06281861 45.49055431 89.84836484 39.66447111 92.625 33.8125 C99.53714918 19.26806212 99.53714918 19.26806212 102.5625 13.125 C102.86800781 12.49279541 103.17351562 11.86059082 103.48828125 11.20922852 C107.86948592 2.37775704 107.86948592 2.37775704 112.125 0.25 C114.53843878 0.0998818 116.9570643 0.0284463 119.375 0 C120.67953125 -0.02578125 121.9840625 -0.0515625 123.328125 -0.078125 C127.3377287 0.26838396 129.71440637 1.16574834 133.125 3.25 C135.53834728 6.2118353 135.38736872 9.38595188 135.34863281 13.1159668 C134.98766275 16.56055122 133.47160352 19.34125376 131.8125 22.3125 C131.07420541 23.70825401 130.33869582 25.10548349 129.60546875 26.50390625 C129.20634277 27.25816895 128.8072168 28.01243164 128.39599609 28.78955078 C126.02166111 33.38589116 123.8363178 38.07365741 121.625 42.75 C117.25563372 51.98395497 112.71202565 61.12297036 108.125 70.25 C105.38096044 75.7153397 102.6386725 81.18155578 99.89819336 86.64868164 C99.09357671 88.25288507 98.28824253 89.85672881 97.48217773 91.46020508 C93.01595704 100.34641606 88.62487868 109.25682433 84.40234375 118.26171875 C81.64015297 124.1506963 78.75286266 129.90689157 75.57324219 135.58447266 C72.91194225 140.48266428 70.54651239 145.52933831 68.14657593 150.5592041 C66.61365912 153.77061237 65.0698532 156.97678504 63.52734375 160.18359375 C63.22780289 160.80686554 62.92826202 161.43013733 62.61964417 162.07229614 C42.46899467 203.97480427 42.46899467 203.97480427 37.125 208.25 C33.81159367 209.33697719 30.6587802 209.41561299 27.1875 209.4375 C26.16785156 209.45167969 25.14820313 209.46585938 24.09765625 209.48046875 C20.98390326 209.23906083 18.88356872 208.70062665 16.125 207.25 C12.82932759 202.61824417 11.62034262 200.01222486 12.125 194.25 C13.24577313 191.19924132 14.72185557 188.35794171 16.21875 185.4765625 C16.64369751 184.63515717 17.06864502 183.79375183 17.50646973 182.92684937 C18.86811012 180.23703473 20.24611333 177.55600759 21.625 174.875 C22.52194655 173.11124276 23.41779045 171.34692432 24.3125 169.58203125 C26.06865361 166.12115309 27.83071234 162.66338865 29.59765625 159.20800781 C33.15371925 152.2454644 36.64033966 145.24846748 40.125 138.25 C40.528396 137.50065186 40.93179199 136.75130371 41.34741211 135.97924805 C42.63867981 133.10764707 41.93908121 131.26524499 41.125 128.25 C39.74641217 124.86605737 38.16962842 121.59303017 36.5625 118.3125 C36.11068359 117.37664062 35.65886719 116.44078125 35.19335938 115.4765625 C32.32111223 109.57002324 29.31138984 103.75661921 26.16577148 97.9921875 C22.81897184 91.80474258 19.84077559 85.44980077 16.84033203 79.08911133 C13.36281814 71.72162179 9.7570053 64.42778839 6.08398438 57.15625 C5.11632095 55.23274796 4.1583025 53.3047298 3.203125 51.375 C-0.89056868 43.11573941 -5.10964156 34.93358233 -9.46240234 26.80737305 C-16.85188465 12.92198568 -16.85188465 12.92198568 -14.875 6.25 C-10.31914923 0.73502275 -6.94789293 0.08813395 0 0 Z " fill="#EEF1F0" transform="translate(672.875,35.75)"/>
<path d="M0 0 C0.99 0.495 0.99 0.495 2 1 C2 3.31 2 5.62 2 8 C-1.86681125 9.25557398 -5.73216948 9.13755051 -9.75024414 9.12597656 C-10.52629501 9.1278447 -11.30234589 9.12971283 -12.10191345 9.13163757 C-13.78357169 9.13563465 -15.46523533 9.13771577 -17.14689827 9.13809967 C-20.71941242 9.14151927 -24.29174521 9.16288053 -27.86419582 9.18333054 C-34.51406283 9.22135788 -41.16373247 9.2526085 -47.8137207 9.25048828 C-52.44161554 9.24970298 -57.06884152 9.27298089 -61.69656181 9.3123703 C-63.46080967 9.32285472 -65.22513449 9.32433641 -66.98939705 9.31671906 C-69.45339051 9.3071374 -71.91534171 9.3281975 -74.37915039 9.35644531 C-75.11013947 9.34624863 -75.84112854 9.33605194 -76.5942688 9.32554626 C-78.8671694 9.31672004 -78.8671694 9.31672004 -82 10 C-83.93212055 12.32589256 -83.93212055 12.32589256 -85 15 C-85.66 15.66 -86.32 16.32 -87 17 C-87.28147193 19.30313107 -87.28147193 19.30313107 -87.1875 21.875 C-87.18105469 22.73867187 -87.17460938 23.60234375 -87.16796875 24.4921875 C-87.01393667 26.79192226 -86.64161776 28.79283489 -86 31 C-89.16976631 28.10586554 -89.92194069 26.03428587 -90.25 21.6875 C-89.90522549 16.60207597 -88.30903095 13.51356704 -85 9.6875 C-81.12720164 6.41982638 -77.02326784 6.86336373 -72.22387695 6.88647461 C-71.03816101 6.88625557 -71.03816101 6.88625557 -69.82849121 6.8860321 C-67.21506 6.88672891 -64.60170001 6.89451045 -61.98828125 6.90234375 C-60.17652933 6.90420876 -58.3647769 6.90563227 -56.55302429 6.90663147 C-51.78382984 6.91045015 -47.01466582 6.92027492 -42.2454834 6.93133545 C-37.37915458 6.94156351 -32.51282084 6.94613208 -27.64648438 6.95117188 C-18.09764287 6.96189774 -8.54882397 6.9789664 1 7 C0.505 3.535 0.505 3.535 0 0 Z " fill="#A8CCC3" transform="translate(172,89)"/>
<path d="M0 0 C1.42675804 0.24398781 1.42675804 0.24398781 2.88233948 0.49290466 C7.55080925 1.15518255 12.1750547 1.13231912 16.88256836 1.11352539 C17.84919403 1.11367142 18.8158197 1.11381744 19.81173706 1.1139679 C22.98779593 1.11327455 26.1637952 1.10550928 29.33984375 1.09765625 C31.54944324 1.09579002 33.75904314 1.09436708 35.96864319 1.09336853 C41.77020419 1.08955952 47.57173995 1.07974307 53.37329102 1.06866455 C59.29898741 1.05841564 65.22468791 1.05386346 71.15039062 1.04882812 C82.76693814 1.03811932 94.38346697 1.02106235 106 1 C102.91134845 3.05910103 102.10706845 3.27150125 98.58520508 3.40307617 C97.66535324 3.44024246 96.7455014 3.47740875 95.79777527 3.51570129 C94.77782974 3.54532455 93.75788422 3.57494781 92.70703125 3.60546875 C91.61920853 3.64238327 90.5313858 3.67929779 89.41059875 3.71733093 C74.51734678 4.17255798 59.61674563 4.25971391 44.7175293 4.29516602 C41.32640433 4.30417376 37.93566969 4.3254394 34.54467773 4.35668945 C30.38556311 4.39501612 26.22679918 4.41391222 22.06751442 4.41844749 C20.49940263 4.42330337 18.93129601 4.43488884 17.36328697 4.45348549 C15.1918771 4.477747 13.02184465 4.47694303 10.8503418 4.4699707 C9.62002731 4.47583694 8.38971283 4.48170319 7.12211609 4.48774719 C3.44575734 3.9134144 2.28306822 2.8622738 0 0 Z " fill="#4D766D" transform="translate(86,120)"/>
<path d="M0 0 C0.08761663 3.54150893 0.14059739 7.08273633 0.1875 10.625 C0.21263672 11.62402344 0.23777344 12.62304688 0.26367188 13.65234375 C0.33649623 20.98332858 -0.53748731 25.3656841 -5.6875 30.875 C-6.8321875 31.926875 -6.8321875 31.926875 -8 33 C-8.99 32.505 -8.99 32.505 -10 32 C-8.50260417 30.6328125 -7.00520833 29.265625 -5.5078125 27.8984375 C-1.43487664 22.77033691 -1.60078809 16.37180378 -1.375 10.125 C-1.33632813 9.24585937 -1.29765625 8.36671875 -1.2578125 7.4609375 C-1.16418966 5.30761207 -1.08103541 3.15383586 -1 1 C-6.29861973 1.21457984 -11.59622973 1.44522734 -16.89355469 1.68969727 C-18.68926769 1.77043052 -20.48517126 1.84704916 -22.28125 1.91918945 C-43.86248497 1.99807741 -43.86248497 1.99807741 -62.25 11.3125 C-65.68669955 16.5902886 -66.36561298 21.8675921 -67 28 C-67.33 28 -67.66 28 -68 28 C-68.23385367 21.65996716 -68.14915035 16.01762098 -66 10 C-64 8.75 -64 8.75 -62 8 C-61.74476563 7.35933594 -61.48953125 6.71867187 -61.2265625 6.05859375 C-60 4 -60 4 -57.5234375 2.98828125 C-38.63018233 -1.06697079 -19.21899398 -0.1176747 0 0 Z " fill="#42574F" transform="translate(625,116)"/>
<path d="M0 0 C0 3.51716303 -0.82445585 4.37121748 -3 7 C-2.05674866 6.99555878 -1.11349731 6.99111755 -0.1416626 6.98654175 C8.74562732 6.94600631 17.63289849 6.91602071 26.52025986 6.89637566 C31.08939211 6.88593644 35.65844975 6.8717747 40.22753906 6.84912109 C44.63658634 6.82739767 49.04556184 6.81543241 53.45465851 6.81024551 C55.13718038 6.80654886 56.8196983 6.79933028 58.50218964 6.78853989 C60.85799158 6.77403158 63.21349653 6.77202177 65.56933594 6.77294922 C66.26561096 6.76575867 66.96188599 6.75856812 67.67926025 6.75115967 C71.60984829 6.76791456 73.3529869 7.17649345 77 9 C49.28 9 21.56 9 -7 9 C-7.33 8.01 -7.66 7.02 -8 6 C-6.60624928 3.21249856 -4.83755139 3.10733713 -2 2 C-1.34 1.34 -0.68 0.68 0 0 Z " fill="#446F66" transform="translate(251,148)"/>
<path d="M0 0 C1.1127832 0.00960754 2.22556641 0.01921509 3.37207031 0.02911377 C7.04059329 0.06202559 10.70899427 0.10238781 14.37744141 0.14282227 C16.92476983 0.16713101 19.47210273 0.19097419 22.0194397 0.21437073 C28.03291652 0.27072539 34.04632801 0.33176621 40.05973399 0.39509207 C46.90855468 0.46695289 53.75742906 0.53280511 60.60631442 0.59816253 C74.68894726 0.73268414 88.77149629 0.87471923 102.85400391 1.02172852 C102.85400391 1.35172852 102.85400391 1.68172852 102.85400391 2.02172852 C102.24955067 2.02319508 101.64509743 2.02466164 101.02232742 2.02617264 C86.31654795 2.06321976 71.61096982 2.12220651 56.90538406 2.20563126 C49.79385244 2.24544553 42.68243185 2.27782578 35.57080078 2.29272461 C28.710694 2.30711735 21.8509437 2.342201 14.99098969 2.39003754 C12.37070451 2.40490187 9.75037023 2.4127724 7.13004303 2.41361237 C3.46636551 2.41596848 -0.19635067 2.44294078 -3.85986328 2.47583008 C-4.94886932 2.47079971 -6.03787537 2.46576935 -7.15988159 2.46058655 C-12.86192465 2.38471564 -12.86192465 2.38471564 -17.66387939 5.05584717 C-18.15297791 5.70458801 -18.64207642 6.35332886 -19.14599609 7.02172852 C-20.13599609 7.02172852 -21.12599609 7.02172852 -22.14599609 7.02172852 C-20.77616107 3.86057076 -20.1569323 3.02901932 -17.14599609 1.02172852 C-11.51361731 -0.38845363 -5.7632708 -0.07143862 0 0 Z " fill="#627E73" transform="translate(225.14599609375,34.978271484375)"/>
<path d="M0 0 C0.99 0 1.98 0 3 0 C2.91572102 8.5709516 2.82088692 17.14169286 2.71247292 25.71236992 C2.66246894 29.69183727 2.61613953 33.67127753 2.578125 37.65087891 C2.54132363 41.48946882 2.49497825 45.3278344 2.44193649 49.16623306 C2.42336503 50.63265178 2.40826728 52.09911863 2.39665604 53.56560898 C2.37984012 55.61542621 2.35081802 57.66472656 2.31884766 59.71435547 C2.30552399 60.88239716 2.29220032 62.05043884 2.2784729 63.25387573 C2 66 2 66 0 68 C0 45.56 0 23.12 0 0 Z " fill="#909894" transform="translate(411,170)"/>
<path d="M0 0 C0 0.66 0 1.32 0 2 C1.32 2.66 2.64 3.32 4 4 C2.64261719 3.75830078 2.64261719 3.75830078 1.2578125 3.51171875 C-4.18231552 2.73982716 -9.64036367 2.8092312 -15.125 2.8125 C-16.78873657 2.8115332 -16.78873657 2.8115332 -18.48608398 2.81054688 C-26.1692398 2.86011199 -33.47907418 3.32536045 -41 5 C-39 2 -39 2 -35.3515625 1.26953125 C-33.77780337 1.09995316 -32.20198411 0.94886579 -30.625 0.8125 C-29.37722778 0.69189209 -29.37722778 0.69189209 -28.10424805 0.56884766 C-18.74265073 -0.25067435 -9.38747076 -0.17805529 0 0 Z " fill="#4C7469" transform="translate(608,62)"/>
<path d="M0 0 C-2.7410644 1.44495024 -5.41808518 2.51930013 -8.375 3.4375 C-14.62288171 5.49960874 -19.28962331 7.30192151 -23 13 C-24.94403144 17.60428499 -25.49004171 22.07040322 -26 27 C-26.33 27 -26.66 27 -27 27 C-27.23385367 20.65996716 -27.14915035 15.01762098 -25 9 C-23 7.75 -23 7.75 -21 7 C-20.75765625 6.360625 -20.5153125 5.72125 -20.265625 5.0625 C-19 3 -19 3 -16.171875 1.953125 C-15.04265625 1.72109375 -13.9134375 1.4890625 -12.75 1.25 C-11.07164062 0.88648437 -11.07164062 0.88648437 -9.359375 0.515625 C-6.1746752 0.02681061 -3.21519233 -0.09743007 0 0 Z " fill="#7B9C95" transform="translate(584,117)"/>
<path d="M0 0 C1.32 0 2.64 0 4 0 C2.37796971 3.95134123 -0.35676687 6.75786252 -3.25 9.8125 C-4.24173891 10.87550645 -5.2326294 11.9393051 -6.22265625 13.00390625 C-6.69977051 13.5158252 -7.17688477 14.02774414 -7.66845703 14.55517578 C-10.19729174 17.29915154 -12.5988069 20.14452713 -15 23 C-15.66 22.01 -16.32 21.02 -17 20 C-16.21625 19.608125 -15.4325 19.21625 -14.625 18.8125 C-11.64843582 16.75725331 -11.01176437 15.40320742 -10 12 C-9.01 12 -8.02 12 -7 12 C-6.9175 11.2575 -6.835 10.515 -6.75 9.75 C-5.84900581 6.44635463 -4.50075412 5.27341283 -2 3 C-1.34 2.01 -0.68 1.02 0 0 Z " fill="#A0B9B5" transform="translate(281,110)"/>
<path d="M0 0 C0.66 0.33 1.32 0.66 2 1 C1.38125 1.0825 0.7625 1.165 0.125 1.25 C-0.57625 1.4975 -1.2775 1.745 -2 2 C-2.268125 2.5775 -2.53625 3.155 -2.8125 3.75 C-4.31608369 6.59889541 -6.42940354 7.74354725 -9.05859375 9.5 C-11.95728 11.73962881 -14.13415278 14.48450766 -16.421875 17.328125 C-18 19 -18 19 -21 20 C-18.7074505 11.84871289 -11.84822004 6.51275656 -5.015625 2.12890625 C-3 1 -3 1 0 0 Z " fill="#98A9A5" transform="translate(555,97)"/>
<path d="M0 0 C0.33 1.32 0.66 2.64 1 4 C0.34 4 -0.32 4 -1 4 C-1.0928125 4.86625 -1.0928125 4.86625 -1.1875 5.75 C-2.33384174 8.92448483 -4.25956842 10.12848575 -7 12 C-7.66 12 -8.32 12 -9 12 C-9.1546875 12.8353125 -9.1546875 12.8353125 -9.3125 13.6875 C-10.17318191 16.58252098 -11.16027512 18.58932602 -13 21 C-16.1875 22.3125 -16.1875 22.3125 -19 23 C-17.37796971 19.04865877 -14.64323313 16.24213748 -11.75 13.1875 C-10.75826109 12.12449355 -9.7673706 11.0606949 -8.77734375 9.99609375 C-8.30022949 9.4841748 -7.82311523 8.97225586 -7.33154297 8.44482422 C-4.80270826 5.70084846 -2.4011931 2.85547287 0 0 Z " fill="#899C96" transform="translate(267,87)"/>
<path d="M0 0 C1.60185089 2.66975149 2.04181804 4.39727137 2.375 7.5625 C2.67906524 10.93302623 2.67906524 10.93302623 4.4921875 12.671875 C8.16716525 14.6181249 11.64698765 14.56842419 15.75 14.6875 C16.93916016 14.73874023 16.93916016 14.73874023 18.15234375 14.79101562 C20.10107504 14.87319104 22.05051362 14.93828045 24 15 C20.61975332 17.042739 17.98164934 17.26976872 14.0625 17.25 C13.04285156 17.25515625 12.02320313 17.2603125 10.97265625 17.265625 C7.87813618 16.98911072 5.74679416 16.43969901 3 15 C-0.17937762 10.53168551 -1.65163727 7.60408048 -1 2 C-0.67 1.34 -0.34 0.68 0 0 Z " fill="#5D6B66" transform="translate(686,228)"/>
<path d="M0 0 C0.33 0 0.66 0 1 0 C1.33 6.93 1.66 13.86 2 21 C2.66 21 3.32 21 4 21 C4.33 23.97 4.66 26.94 5 30 C5.99 30 6.98 30 8 30 C8.54372951 33.05847848 9 35.88772805 9 39 C2.46219916 29.05117264 -0.1780899 21.11104316 -0.0625 9.1875 C-0.05798828 8.30384766 -0.05347656 7.42019531 -0.04882812 6.50976562 C-0.03709866 4.33981441 -0.01916495 2.16989828 0 0 Z " fill="#5C7C75" transform="translate(529,130)"/>
<path d="M0 0 C0.33 0 0.66 0 1 0 C1.02505615 0.69150146 1.0501123 1.38300293 1.07592773 2.09545898 C1.19152161 5.20967866 1.31441242 8.32356789 1.4375 11.4375 C1.47681641 12.52611328 1.51613281 13.61472656 1.55664062 14.73632812 C1.59853516 15.77080078 1.64042969 16.80527344 1.68359375 17.87109375 C1.73858032 19.30859985 1.73858032 19.30859985 1.79467773 20.77514648 C1.75834424 22.97138925 1.75834424 22.97138925 3 24 C3.21149332 25.72425802 3.36908843 27.45525946 3.5 29.1875 C3.82677889 33.17109028 4.25616691 37.06831081 5 41 C0.03075089 36.03075089 -0.19909474 28.35421575 -0.29296875 21.6796875 C-0.27325871 19.07796213 -0.23782303 16.47631332 -0.1875 13.875 C-0.17241432 12.52345254 -0.15873283 11.17188865 -0.14648438 9.8203125 C-0.11140724 6.54644629 -0.06225097 3.2734432 0 0 Z " fill="#D7F5EF" transform="translate(51,98)"/>
<path d="M0 0 C0 4.57142857 0 4.57142857 -1 7 C-2.46230182 8.26732824 -3.93135119 9.52959559 -5.4609375 10.71484375 C-7.19992127 12.07373588 -7.19992127 12.07373588 -8.9375 14.5 C-11.60073801 17.72816728 -14.53236702 19.66601626 -18 22 C-16.43474036 18.32206751 -14.14603892 15.78787492 -11.4375 12.875 C-8.36280814 9.68492491 -8.36280814 9.68492491 -6 6 C-5.34 6 -4.68 6 -4 6 C-3.566875 5.071875 -3.566875 5.071875 -3.125 4.125 C-2 2 -2 2 0 0 Z " fill="#849691" transform="translate(286,65)"/>
<path d="M0 0 C10.56 0.66 21.12 1.32 32 2 C32 2.33 32 2.66 32 3 C9.74282032 4.95360825 9.74282032 4.95360825 0 1 C0 0.67 0 0.34 0 0 Z " fill="#555A57" transform="translate(427,181)"/>
<path d="M0 0 C0 0.66 0 1.32 0 2 C1.08861328 2.09667969 1.08861328 2.09667969 2.19921875 2.1953125 C5.88429782 3.25406604 7.30668849 5.0076535 9.8125 7.875 C10.99779297 9.20144531 10.99779297 9.20144531 12.20703125 10.5546875 C14 13 14 13 14 16 C13.48953125 15.41992188 12.9790625 14.83984375 12.453125 14.2421875 C6.6493075 8.00617083 0.79619517 4.36384056 -7 1 C-7 0.67 -7 0.34 -7 0 C-2.25 -1.125 -2.25 -1.125 0 0 Z " fill="#7CA498" transform="translate(152,64)"/>
<path d="M0 0 C0.66 0.33 1.32 0.66 2 1 C-1.75 6.75 -1.75 6.75 -4 9 C-4.28147193 11.30313107 -4.28147193 11.30313107 -4.1875 13.875 C-4.18105469 14.73867187 -4.17460938 15.60234375 -4.16796875 16.4921875 C-4.01393667 18.79192226 -3.64161776 20.79283489 -3 23 C-6.16976631 20.10586554 -6.92194069 18.03428587 -7.25 13.6875 C-6.84107558 7.65586485 -4.43899651 3.97978998 0 0 Z " fill="#82B0A5" transform="translate(89,97)"/>
<path d="M0 0 C0.33 0.66 0.66 1.32 1 2 C0.19555664 4.06298828 0.19555664 4.06298828 -1.08984375 6.5703125 C-1.54423828 7.46621094 -1.99863281 8.36210938 -2.46679688 9.28515625 C-2.95212891 10.22230469 -3.43746094 11.15945312 -3.9375 12.125 C-4.41896484 13.06988281 -4.90042969 14.01476562 -5.39648438 14.98828125 C-6.59061095 17.32924226 -7.79202599 19.66616264 -9 22 C-9.66 20.68 -10.32 19.36 -11 18 C-10.071875 16.88625 -10.071875 16.88625 -9.125 15.75 C-6.3069539 12.10311681 -5.03852789 9.27207458 -4.0625 4.8125 C-3.711875 3.554375 -3.36125 2.29625 -3 1 C-2.01 0.67 -1.02 0.34 0 0 Z " fill="#6F847D" transform="translate(781,102)"/>
<path d="M0 0 C1.0703125 1.76953125 1.0703125 1.76953125 2 4 C0.875 7.6875 0.875 7.6875 -1 11 C-3.1875 11.9375 -3.1875 11.9375 -5 12 C-5.12375 12.804375 -5.2475 13.60875 -5.375 14.4375 C-5.58125 15.283125 -5.7875 16.12875 -6 17 C-6.66 17.33 -7.32 17.66 -8 18 C-6.52232949 11.35048271 -3.37863948 5.8754328 0 0 Z " fill="#9AAAA4" transform="translate(764,73)"/>
<path d="M0 0 C0.33 0.66 0.66 1.32 1 2 C0.29296875 3.69921875 0.29296875 3.69921875 -0.8125 5.6875 C-4.32070434 12.00733381 -5.31325202 18.33873874 -5.625 25.4375 C-5.66367188 26.16904297 -5.70234375 26.90058594 -5.7421875 27.65429688 C-5.83533984 29.43583532 -5.91870286 31.21788122 -6 33 C-6.33 33 -6.66 33 -7 33 C-8.24524086 10.07160352 -8.24524086 10.07160352 -1 1 C-0.67 0.67 -0.34 0.34 0 0 Z " fill="#5F8D85" transform="translate(84,83)"/>
<path d="M0 0 C0 0.66 0 1.32 0 2 C-0.598125 2.226875 -1.19625 2.45375 -1.8125 2.6875 C-4.5778987 4.34673922 -5.38565509 6.24216078 -7 9 C-8.9375 10.875 -8.9375 10.875 -11 12 C-13.12890625 11.5703125 -13.12890625 11.5703125 -15 11 C-4.55617978 0 -4.55617978 0 0 0 Z " fill="#8EAC9E" transform="translate(86,44)"/>
<path d="M0 0 C3.12270126 2.51830747 3.94523098 3.7261549 4.75 7.75 C4.8325 8.8225 4.915 9.895 5 11 C5.969375 10.21625 6.93875 9.4325 7.9375 8.625 C8.75541016 7.96371094 8.75541016 7.96371094 9.58984375 7.2890625 C11.13266437 6.0333609 11.13266437 6.0333609 12 4 C12.66 4.33 13.32 4.66 14 5 C12.93249206 6.51130338 11.84539718 8.00878703 10.75 9.5 C10.14671875 10.3353125 9.5434375 11.170625 8.921875 12.03125 C8.28765625 12.6809375 7.6534375 13.330625 7 14 C5.68 14 4.36 14 3 14 C2.86722656 13.24074219 2.73445313 12.48148438 2.59765625 11.69921875 C2.42105469 10.70535156 2.24445313 9.71148437 2.0625 8.6875 C1.88847656 7.70136719 1.71445312 6.71523438 1.53515625 5.69921875 C1.04253153 2.91810787 1.04253153 2.91810787 0 0 Z " fill="#7B827E" transform="translate(408,38)"/>
<path d="M0 0 C0.33 0.66 0.66 1.32 1 2 C0.0390625 4.42578125 0.0390625 4.42578125 -1.375 7.3125 C-2.77777916 10.18467074 -3.92854878 12.62970536 -4.53515625 15.7734375 C-4.68855469 16.50820312 -4.84195313 17.24296875 -5 18 C-7.0625 19.3125 -7.0625 19.3125 -9 20 C-9 16.80086419 -8.51720902 15.73317778 -7.03125 12.98828125 C-6.62519531 12.23095703 -6.21914063 11.47363281 -5.80078125 10.69335938 C-5.37152344 9.90767578 -4.94226563 9.12199219 -4.5 8.3125 C-4.07074219 7.51521484 -3.64148438 6.71792969 -3.19921875 5.89648438 C-2.13831912 3.92792617 -1.07175323 1.96266394 0 0 Z " fill="#465651" transform="translate(742,118)"/>
<path d="M0 0 C1.21156616 3.99559054 0.51422937 6.09488216 -1 10 C-1.28875 10.928125 -1.5775 11.85625 -1.875 12.8125 C-3 15 -3 15 -5.125 15.8125 C-5.74375 15.874375 -6.3625 15.93625 -7 16 C-5.35433477 10.31497465 -2.70967216 5.23318364 0 0 Z " fill="#8C9B93" transform="translate(772,56)"/>
<path d="M0 0 C0.33 0 0.66 0 1 0 C1.51871665 7.56173611 1.76314334 13.36220901 -2.7109375 19.70703125 C-3.13632812 20.13371094 -3.56171875 20.56039062 -4 21 C-4.66 21 -5.32 21 -6 21 C-5.71382813 20.17242187 -5.42765625 19.34484375 -5.1328125 18.4921875 C-3.91264756 14.73071351 -2.87551992 10.94920949 -1.875 7.125 C-1.69324219 6.43664062 -1.51148438 5.74828125 -1.32421875 5.0390625 C-0.88108774 3.3598292 -0.44029956 1.67997794 0 0 Z " fill="#727975" transform="translate(491,114)"/>
<path d="M0 0 C-1.51553404 3.47775179 -3.5773456 5.9557984 -6.125 8.75 C-7.21167969 9.94882813 -7.21167969 9.94882813 -8.3203125 11.171875 C-8.87460937 11.77515625 -9.42890625 12.3784375 -10 13 C-10.33 11.68 -10.66 10.36 -11 9 C-10.01 8.67 -9.02 8.34 -8 8 C-6.96514123 5.68191636 -5.9644586 3.34824702 -5 1 C-3 0 -3 0 0 0 Z " fill="#95AFAB" transform="translate(305,87)"/>
<path d="M0 0 C1.36363636 4.09090909 1.36363636 4.09090909 0 7 C-1.98320018 8.03291676 -3.98347806 9.0337499 -6 10 C-6.33 10.99 -6.66 11.98 -7 13 C-7.66 13 -8.32 13 -9 13 C-7.47987323 7.59510481 -3.72614782 4.01507372 0 0 Z " fill="#8FAB9F" transform="translate(70,56)"/>
<path d="M0 0 C0.99 0.33 1.98 0.66 3 1 C-1 8.57142857 -1 8.57142857 -5 11 C-3.14285714 2.28571429 -3.14285714 2.28571429 0 0 Z " fill="#9BB6AF" transform="translate(331,52)"/>
<path d="M0 0 C0 3 0 3 -2.5 5.6875 C-3.325 6.450625 -4.15 7.21375 -5 8 C-1.7 8 1.6 8 5 8 C5 8.33 5 8.66 5 9 C1.04 9 -2.92 9 -7 9 C-7.33 8.01 -7.66 7.02 -8 6 C-6.60624928 3.21249856 -4.83755139 3.10733713 -2 2 C-1.34 1.34 -0.68 0.68 0 0 Z " fill="#9DB5B1" transform="translate(251,148)"/>
<path d="M0 0 C2.97 0 5.94 0 9 0 C6.35658072 1.76227952 3.76922765 3.19871008 0.9375 4.625 C0.05964844 5.07101563 -0.81820312 5.51703125 -1.72265625 5.9765625 C-4 7 -4 7 -6 7 C-5.625 5.0625 -5.625 5.0625 -5 3 C-4.34 2.67 -3.68 2.34 -3 2 C-2.01 2.33 -1.02 2.66 0 3 C0 2.01 0 1.02 0 0 Z " fill="#8FAFA3" transform="translate(103,63)"/>
<path d="M0 0 C1 3 1 3 1 5 C-2.46153846 8 -2.46153846 8 -5 8 C-5.33 8.99 -5.66 9.98 -6 11 C-6.99 10.67 -7.98 10.34 -9 10 C-6.03 6.7 -3.06 3.4 0 0 Z " fill="#96A5A1" transform="translate(227,133)"/>
<path d="M0 0 C6.6 0 13.2 0 20 0 C20 0.66 20 1.32 20 2 C21.32 2.66 22.64 3.32 24 4 C17.125 3.125 17.125 3.125 16 2 C13.30764224 1.76321284 10.63501844 1.57801975 7.9375 1.4375 C7.17888672 1.39431641 6.42027344 1.35113281 5.63867188 1.30664062 C3.75934562 1.20026367 1.87969756 1.09960066 0 1 C0 0.67 0 0.34 0 0 Z " fill="#95BCB4" transform="translate(588,62)"/>
<path d="M0 0 C0.33 0 0.66 0 1 0 C2.34622701 6.24159797 2.34622701 6.24159797 0.6875 9.875 C-1 12 -1 12 -3 13 C-2.45144652 8.428721 -1.58255197 4.32564205 0 0 Z " fill="#9BABA6" transform="translate(533,117)"/>
<path d="M0 0 C1.4606285 2.64738916 2 3.89448334 2 7 C0.625 9.6875 0.625 9.6875 -1 12 C-1.66 12 -2.32 12 -3 12 C-2.69106068 10.3743193 -2.3777305 8.74947252 -2.0625 7.125 C-1.88847656 6.22007813 -1.71445312 5.31515625 -1.53515625 4.3828125 C-1 2 -1 2 0 0 Z " fill="#BAD3CC" transform="translate(57,74)"/>
<path d="M0 0 C2 3.75 2 3.75 2 6 C1.34 6 0.68 6 0 6 C-0.103125 6.598125 -0.20625 7.19625 -0.3125 7.8125 C-1.08876455 10.28243264 -2.07088921 11.32251235 -4 13 C-4.33 12.34 -4.66 11.68 -5 11 C-4.00390625 8.3984375 -4.00390625 8.3984375 -2.5625 5.375 C-2.08941406 4.37210937 -1.61632812 3.36921875 -1.12890625 2.3359375 C-0.75636719 1.56507812 -0.38382813 0.79421875 0 0 Z " fill="#A1B6B0" transform="translate(748,105)"/>
<path d="M0 0 C1.31157516 2.62315032 0.89649988 4.23033436 0.5625 7.125 C0.46066406 8.03507813 0.35882813 8.94515625 0.25390625 9.8828125 C0.12822266 10.93082031 0.12822266 10.93082031 0 12 C0.99 12.33 1.98 12.66 3 13 C2.67 13.99 2.34 14.98 2 16 C-0.74332921 13.68554705 -1.45890844 12.11639481 -1.8125 8.5625 C-1.90144531 7.80066406 -1.99039063 7.03882813 -2.08203125 6.25390625 C-1.98860268 3.68684495 -1.29378268 2.19293667 0 0 Z " fill="#5D756B" transform="translate(201,163)"/>
<path d="M0 0 C0 3.70411834 -0.75301769 5.078923 -3 8 C-6.1875 9.3125 -6.1875 9.3125 -9 10 C-7.61811547 6.78956118 -6.07578097 4.95063635 -3.375 2.75 C-2.74335938 2.22921875 -2.11171875 1.7084375 -1.4609375 1.171875 C-0.73777344 0.59179688 -0.73777344 0.59179688 0 0 Z " fill="#AAB9B2" transform="translate(257,100)"/>
<path d="M0 0 C1.54078615 2.98440561 2.86973276 6.01007758 4.125 9.125 C4.47820312 9.99382812 4.83140625 10.86265625 5.1953125 11.7578125 C6 14 6 14 6 16 C5.34 16 4.68 16 4 16 C1.8480563 12.77208445 1.79913557 11.71599191 2 8 C1.34 8 0.68 8 0 8 C0 5.36 0 2.72 0 0 Z " fill="#7CB7AE" transform="translate(78,118)"/>
<path d="M0 0 C0.33 0.66 0.66 1.32 1 2 C-0.07408957 4.60474038 -1.20045633 7.09966038 -2.4375 9.625 C-2.77587891 10.33140625 -3.11425781 11.0378125 -3.46289062 11.765625 C-4.30154879 13.51381384 -5.14987847 15.25735686 -6 17 C-7 14 -7 14 -6.2578125 12.1328125 C-5.69707031 11.13894531 -5.69707031 11.13894531 -5.125 10.125 C-3.47232518 7.05170401 -2.6263278 4.44480292 -2 1 C-1.34 0.67 -0.68 0.34 0 0 Z " fill="#5A756E" transform="translate(797,69)"/>
<path d="M0 0 C0.99 0 1.98 0 3 0 C-0.33846154 6.67692308 -0.33846154 6.67692308 -3.6875 8.3125 C-4.450625 8.539375 -5.21375 8.76625 -6 9 C-5.34 7.35 -4.68 5.7 -4 4 C-3.01 4 -2.02 4 -1 4 C-0.67 2.68 -0.34 1.36 0 0 Z " fill="#C2D6CF" transform="translate(64,65)"/>
<path d="M0 0 C0.8125 1.6875 0.8125 1.6875 1 4 C-1.4375 6.75 -1.4375 6.75 -4 9 C-4.66 8.67 -5.32 8.34 -6 8 C-4.55746343 4.63408134 -2.66735273 2.48952921 0 0 Z " fill="#A2B1AD" transform="translate(208,155)"/>
<path d="M0 0 C3.06273018 3.3899808 3.60550995 6.27315343 4.1875 10.75 C4.34605469 11.92046875 4.50460938 13.0909375 4.66796875 14.296875 C4.83232422 15.63492188 4.83232422 15.63492188 5 17 C2.71636622 14.71636622 2.2847151 13.25204532 1.375 10.1875 C1.11460938 9.33542969 0.85421875 8.48335937 0.5859375 7.60546875 C-0.0044509 4.98020834 -0.10588413 2.68079363 0 0 Z " fill="#609A8C" transform="translate(51,122)"/>
<path d="M0 0 C8.12628256 -0.46882399 8.12628256 -0.46882399 11.5625 1.375 C13 3 13 3 13 5 C11.68 5.33 10.36 5.66 9 6 C8.67 4.35 8.34 2.7 8 1 C5.36 1 2.72 1 0 1 C0 0.67 0 0.34 0 0 Z " fill="#A9BEB7" transform="translate(321,37)"/>
<path d="M0 0 C3.02990095 1.71967351 5.76327296 3.29238306 8 6 C8 6.66 8 7.32 8 8 C6.68 8 5.36 8 4 8 C3.71125 7.195625 3.4225 6.39125 3.125 5.5625 C2.26737432 2.8673532 2.26737432 2.8673532 0 2 C0 1.34 0 0.68 0 0 Z " fill="#86A29C" transform="translate(636,47)"/>
<path d="M0 0 C0.66 0.33 1.32 0.66 2 1 C1 4 1 4 -1.3125 5.25 C-4.16597407 6.04631835 -5.24802325 5.8214856 -8 5 C-6.71475739 4.13619741 -5.42157581 3.28419631 -4.125 2.4375 C-3.04605469 1.72400391 -3.04605469 1.72400391 -1.9453125 0.99609375 C-1.30335938 0.66738281 -0.66140625 0.33867187 0 0 Z " fill="#888F8A" transform="translate(472,147)"/>
<path d="M0 0 C0 3 0 3 -1.53125 4.60546875 C-2.1809375 5.12753906 -2.830625 5.64960937 -3.5 6.1875 C-4.1496875 6.71730469 -4.799375 7.24710937 -5.46875 7.79296875 C-5.9740625 8.19128906 -6.479375 8.58960937 -7 9 C-7.33 8.01 -7.66 7.02 -8 6 C-7.360625 5.896875 -6.72125 5.79375 -6.0625 5.6875 C-5.381875 5.460625 -4.70125 5.23375 -4 5 C-3.67 4.01 -3.34 3.02 -3 2 C-2.01 1.34 -1.02 0.68 0 0 Z " fill="#83A19C" transform="translate(292,101)"/>
<path d="M0 0 C0.33 0.66 0.66 1.32 1 2 C0.06553465 4.03144641 -0.93224776 6.03533587 -2 8 C-2.66 8 -3.32 8 -4 8 C-3.67 5.69 -3.34 3.38 -3 1 C-2.01 0.67 -1.02 0.34 0 0 Z " fill="#91A8A0" transform="translate(781,102)"/>
<path d="M0 0 C0.33 0.99 0.66 1.98 1 3 C1.66 3.33 2.32 3.66 3 4 C2.360625 4.61875 1.72125 5.2375 1.0625 5.875 C-1.03883584 7.82597612 -1.03883584 7.82597612 -2 10 C-2.66 10 -3.32 10 -4 10 C-3.52449439 8.51965236 -3.04448784 7.04074979 -2.5625 5.5625 C-2.29566406 4.73878906 -2.02882813 3.91507812 -1.75390625 3.06640625 C-1 1 -1 1 0 0 Z " fill="#7E938B" transform="translate(753,95)"/>
<path d="M0 0 C1.65 1.65 3.3 3.3 5 5 C4.67 5.99 4.34 6.98 4 8 C2.68 7.67 1.36 7.34 0 7 C0 4.69 0 2.38 0 0 Z " fill="#D5DFDD" transform="translate(203,174)"/>
<path d="M0 0 C0.33 0.99 0.66 1.98 1 3 C0.01 3.33 -0.98 3.66 -2 4 C-2.73323796 6.01508358 -2.73323796 6.01508358 -3 8 C-4.32 8.33 -5.64 8.66 -7 9 C-6.34 7.68 -5.68 6.36 -5 5 C-4.34 5 -3.68 5 -3 5 C-2.690625 4.360625 -2.38125 3.72125 -2.0625 3.0625 C-1 1 -1 1 0 0 Z " fill="#8B9B94" transform="translate(240,118)"/>
<path d="M0 0 C0.66 0.33 1.32 0.66 2 1 C0.29374499 3.78388975 -0.47626739 4.85384206 -3.6875 5.75 C-4.8321875 5.87375 -4.8321875 5.87375 -6 6 C-4.98545548 3.4636387 -4.3146444 2.20648539 -2 0.6875 C-1.34 0.460625 -0.68 0.23375 0 0 Z " fill="#919894" transform="translate(543,47)"/>
<path d="M0 0 C4.29 0.66 8.58 1.32 13 2 C13 2.33 13 2.66 13 3 C11.20906809 3.08086147 9.41710372 3.13912702 7.625 3.1875 C6.12839844 3.23970703 6.12839844 3.23970703 4.6015625 3.29296875 C3.74304688 3.19628906 2.88453125 3.09960938 2 3 C1.34 2.01 0.68 1.02 0 0 Z " fill="#869591" transform="translate(109,154)"/>
<path d="M0 0 C2.0625 0.4375 2.0625 0.4375 4 1 C2.1875 3 2.1875 3 0 5 C-0.99 5 -1.98 5 -3 5 C-1.125 1.125 -1.125 1.125 0 0 Z " fill="#9CC1B6" transform="translate(206,37)"/>
<path d="M0 0 C0.99 0.33 1.98 0.66 3 1 C2.39816251 3.02045442 1.72693904 5.02111039 1 7 C0.01 7.495 0.01 7.495 -1 8 C-1.66 7.34 -2.32 6.68 -3 6 C-2.67 5.34 -2.34 4.68 -2 4 C-1.01 4 -0.02 4 1 4 C0.67 2.68 0.34 1.36 0 0 Z " fill="#A2B2AA" transform="translate(748,163)"/>
<path d="M0 0 C0.66 0 1.32 0 2 0 C2.33 0.99 2.66 1.98 3 3 C2.01 3.99 1.02 4.98 0 6 C-0.99 5.67 -1.98 5.34 -3 5 C-2 3 -2 3 0 0 Z " fill="#84948F" transform="translate(735,132)"/>
<path d="M0 0 C0.33 0 0.66 0 1 0 C1 1.65 1 3.3 1 5 C1.99 5.33 2.98 5.66 4 6 C4 7.32 4 8.64 4 10 C3.34 10 2.68 10 2 10 C-0.09350689 6.5980513 -0.17942163 3.94727588 0 0 Z " fill="#DBF8F4" transform="translate(84,110)"/>
<path d="M0 0 C1.32 0.33 2.64 0.66 4 1 C3.67 2.32 3.34 3.64 3 5 C3.66 5.33 4.32 5.66 5 6 C4.01 6 3.02 6 2 6 C0 3 0 3 0 0 Z " fill="#8E9D98" transform="translate(669,71)"/>
<path d="M0 0 C3.36591866 1.44253657 5.51047079 3.33264727 8 6 C5.125 5.8125 5.125 5.8125 2 5 C0.625 2.4375 0.625 2.4375 0 0 Z " fill="#757C79" transform="translate(487,45)"/>
<path d="M0 0 C0.33 0.99 0.66 1.98 1 3 C0.34 3 -0.32 3 -1 3 C-1.33 3.99 -1.66 4.98 -2 6 C-2.99 5.67 -3.98 5.34 -5 5 C-3.35 3.35 -1.7 1.7 0 0 Z " fill="#EEF3F0" transform="translate(390,38)"/>
<path d="" fill="#000000" transform="translate(0,0)"/>
<path d="" fill="#000000" transform="translate(0,0)"/>
<path d="" fill="#000000" transform="translate(0,0)"/>
<path d="" fill="#000000" transform="translate(0,0)"/>
<path d="" fill="#000000" transform="translate(0,0)"/>
<path d="" fill="#000000" transform="translate(0,0)"/>
<path d="" fill="#000000" transform="translate(0,0)"/>
<path d="" fill="#000000" transform="translate(0,0)"/>
<path d="" fill="#000000" transform="translate(0,0)"/>
<path d="" fill="#000000" transform="translate(0,0)"/>
<path d="" fill="#000000" transform="translate(0,0)"/>
<path d="" fill="#FFFFFF" transform="translate(0,0)"/>
<path d="" fill="#000000" transform="translate(0,0)"/>
<path d="" fill="#000000" transform="translate(0,0)"/>
<path d="" fill="#000000" transform="translate(0,0)"/>
<path d="" fill="#000000" transform="translate(0,0)"/>
<path d="" fill="#000000" transform="translate(0,0)"/>
<path d="" fill="#000000" transform="translate(0,0)"/>
<path d="" fill="#000000" transform="translate(0,0)"/>
<path d="" fill="#000000" transform="translate(0,0)"/>
<path d="" fill="#000000" transform="translate(0,0)"/>
<path d="" fill="#000000" transform="translate(0,0)"/>
<path d="" fill="#000000" transform="translate(0,0)"/>
<path d="" fill="#000000" transform="translate(0,0)"/>
<path d="" fill="#000000" transform="translate(0,0)"/>
<path d="" fill="#000000" transform="translate(0,0)"/>
<path d="" fill="#000000" transform="translate(0,0)"/>
<path d="" fill="#000000" transform="translate(0,0)"/>
<path d="" fill="#000000" transform="translate(0,0)"/>
<path d="" fill="#000000" transform="translate(0,0)"/>
<path d="" fill="#000000" transform="translate(0,0)"/>
<path d="" fill="#000000" transform="translate(0,0)"/>
<path d="" fill="#000000" transform="translate(0,0)"/>
<path d="" fill="#000000" transform="translate(0,0)"/>
<path d="" fill="#000000" transform="translate(0,0)"/>
<path d="" fill="#000000" transform="translate(0,0)"/>
<path d="" fill="#00FF00" transform="translate(0,0)"/>
<path d="" fill="#000000" transform="translate(0,0)"/>
<path d="" fill="#000000" transform="translate(0,0)"/>
<path d="" fill="#000000" transform="translate(0,0)"/>
<path d="" fill="#000000" transform="translate(0,0)"/>
<path d="" fill="#000000" transform="translate(0,0)"/>
<path d="" fill="#000000" transform="translate(0,0)"/>
<path d="" fill="#000000" transform="translate(0,0)"/>
<path d="" fill="#000000" transform="translate(0,0)"/>
<path d="" fill="#000000" transform="translate(0,0)"/>
<path d="" fill="#000000" transform="translate(0,0)"/>
<path d="" fill="#000000" transform="translate(0,0)"/>
<path d="" fill="#000000" transform="translate(0,0)"/>
<path d="" fill="#000000" transform="translate(0,0)"/>
<path d="" fill="#000000" transform="translate(0,0)"/>
<path d="" fill="#000000" transform="translate(0,0)"/>
<path d="" fill="#000000" transform="translate(0,0)"/>
<path d="" fill="#000000" transform="translate(0,0)"/>
<path d="" fill="#000000" transform="translate(0,0)"/>
<path d="" fill="#000000" transform="translate(0,0)"/>
<path d="" fill="#000000" transform="translate(0,0)"/>
<path d="" fill="#000000" transform="translate(0,0)"/>
<path d="" fill="#000000" transform="translate(0,0)"/>
<path d="" fill="#000000" transform="translate(0,0)"/>
<path d="" fill="#000000" transform="translate(0,0)"/>
<path d="" fill="#000000" transform="translate(0,0)"/>
<path d="" fill="#000000" transform="translate(0,0)"/>
<path d="" fill="#000000" transform="translate(0,0)"/>
<path d="" fill="#000000" transform="translate(0,0)"/>
<path d="" fill="#000000" transform="translate(0,0)"/>
<path d="" fill="#000000" transform="translate(0,0)"/>
</svg>
